PathFileType	4	(X/Y/Z)	C:/Users/opensim2020/Desktop/walking_exp_matlab/subject02/subject02_trc/subject02_walking16_run_cyclic.trc																																																																																																																																																							
DataRate	CameraRate	NumFrames	NumMarkers	Units	OrigDataRate	OrigDataStartFrame	OrigNumFrames																																																																																																																																																			
100	100	4	51	mm	100	218	60																																																																																																																																																			
Frame#	Time	RTOE			LSHO			LELB			RELB			RFIN			LTHI			LKNE			RWRB			RUPA			LTIB			RASI			LANK			LTOE			RSHO			RWRA			RFRM			LASI			STRN			LFHD			RTHI			RFHD			LWRB			LFIN			LUPA			RKNE			RBHD			LFRM			C7			LWRA			RTIB			CLAV			LHEE			RANK			LBHD			RBAK			RHEE			T10			LPSI			RPSI			*39			*40			*41			*42			*43			*44			*45			*46			*47			*48			*49			*50		
		X1	Y1	Z1	X2	Y2	Z2	X3	Y3	Z3	X4	Y4	Z4	X5	Y5	Z5	X6	Y6	Z6	X7	Y7	Z7	X8	Y8	Z8	X9	Y9	Z9	X10	Y10	Z10	X11	Y11	Z11	X12	Y12	Z12	X13	Y13	Z13	X14	Y14	Z14	X15	Y15	Z15	X16	Y16	Z16	X17	Y17	Z17	X18	Y18	Z18	X19	Y19	Z19	X20	Y20	Z20	X21	Y21	Z21	X22	Y22	Z22	X23	Y23	Z23	X24	Y24	Z24	X25	Y25	Z25	X26	Y26	Z26	X27	Y27	Z27	X28	Y28	Z28	X29	Y29	Z29	X30	Y30	Z30	X31	Y31	Z31	X32	Y32	Z32	X33	Y33	Z33	X34	Y34	Z34	X35	Y35	Z35	X36	Y36	Z36	X37	Y37	Z37	X38	Y38	Z38	X39	Y39	Z39	X40	Y40	Z40	X41	Y41	Z41	X42	Y42	Z42	X43	Y43	Z43	X44	Y44	Z44	X45	Y45	Z45	X46	Y46	Z46	X47	Y47	Z47	X48	Y48	Z48	X49	Y49	Z49	X50	Y50	Z50	X51	Y51	Z51
																																																																																																																																																										
52	0.51	253.63907	37.20673	125.2994	315.25534	1455.19922	-106.18874	353.05142	1249.69385	-372.7681	113.24609	1129.70154	344.84476	388.38303	1045.93823	307.32837	300.91925	614.18011	-126.40624	292.27136	443.60114	-98.51878	333.73886	1011.836	303.86819	134.32608	1269.38977	310.69858	123.95264	414.70944	-82.5968	300.73099	925.20764	187.65712	-74.23347	335.30228	-46.55523	-81.60308	179.34192	-66.99975	235.6418	1432.23987	239.51848	338.00595	1063.39392	275.70731	225.19095	1068.78064	329.16626	324.81186	909.72595	-67.01043	369.52939	1216.19434	66.34328	343.74469	1694.40698	-9.35348	262.06247	634.48969	233.01675	351.58374	1688.24646	135.18327	447.12738	999.1134	-333.67114	458.58185	939.25848	-302.34573	320.71576	1350.53662	-275.78607	294.72534	428.25397	173.13713	226.09013	1584.70972	136.90907	408.65555	1114.48474	-361.53308	206.79095	1477.93237	46.51817	420.64258	1003.5661	-281.24805	202.64186	259.4267	167.64919	342.59912	1396.23206	63.41967	-102.06889	354.11639	10.95717	114.33913	90.64722	119.76002	229.83572	1595.34888	-6.0412	116.80033	1317.52576	88.51448	61.93102	43.71963	62.18213	121.76824	1218.09473	33.65623	115.4814	992.37732	-12.23925	100.7869	999.31018	98.58916	NaN	NaN	NaN	2846.0874	1034.36047	-3356.69409	NaN	NaN	NaN	NaN	NaN	NaN	NaN	NaN	NaN	NaN	NaN	NaN	NaN	NaN	NaN	NaN	NaN	NaN	NaN	NaN	NaN	NaN	NaN	NaN	233.3427	1745.54956	81.04406	NaN	NaN	NaN
53	0.52	253.37033	37.02103	125.38652	350.78394	1458.19202	-108.01127	370.60486	1265.94238	-381.78738	176.99303	1125.34839	349.47159	457.02972	1068.23828	294.43723	352.43973	619.48956	-125.45194	357.34421	449.46289	-96.1035	404.70251	1029.33899	295.97906	183.6749	1267.57617	311.42419	191.66473	416.17603	-80.42405	337.15048	919.31384	190.89592	-3.57833	322.26395	-48.10974	2.46426	167.09659	-67.34492	277.45389	1435.18762	240.3894	401.8425	1080.02295	266.27661	292.63885	1075.77454	327.02686	363.36475	907.92242	-69.6423	409.10049	1218.20313	67.45641	381.69904	1695.99365	-10.30117	292.4119	631.88452	232.4631	389.82483	1690.14087	133.76831	461.16629	1009.60596	-352.81076	474.58337	949.47009	-321.84473	341.27725	1360.97229	-278.71078	303.07733	422.76096	175.01765	265.10397	1585.82886	136.50085	423.61792	1128.3894	-377.04294	246.24045	1479.64758	48.07597	442.46402	1015.86713	-297.55774	207.86736	256.09695	167.84747	381.88913	1398.04541	61.97959	-35.59114	340.01599	8.09985	114.67743	92.73682	119.88055	268.39597	1596.02283	-6.46602	156.99294	1319.88721	92.23726	61.55264	47.82817	61.96888	160.53517	1219.80029	36.53123	152.04488	995.18585	-7.83139	139.77451	1003.82135	101.52049	NaN	NaN	NaN	2846.01538	1034.47424	-3356.81567	NaN	NaN	NaN	NaN	NaN	NaN	NaN	NaN	NaN	NaN	NaN	NaN	NaN	NaN	NaN	NaN	NaN	NaN	NaN	NaN	NaN	NaN	NaN	NaN	271.23749	1746.2041	80.02233	NaN	NaN	NaN
54	0.53	252.92177	36.77312	125.10801	383.47968	1463.86218	-109.03949	388.54849	1282.14746	-389.32507	241.55949	1125.91174	353.9444	521.77655	1094.99829	280.12906	403.56009	627.08875	-124.99195	421.03326	457.81183	-92.8475	473.00354	1051.91589	287.46585	234.82283	1269.44446	313.22095	258.49396	416.96033	-77.91011	374.85397	915.65393	192.14455	67.5771	306.94461	-49.72961	89.34614	152.91057	-66.73776	320.24078	1440.46704	240.30859	463.45996	1100.88013	256.62189	359.04605	1087.40308	324.71457	401.13562	913.198	-71.73861	449.1684	1222.08154	67.59347	420.09406	1699.54846	-11.63099	318.96008	626.56036	231.75504	428.01443	1693.44458	132.32486	475.35025	1023.30151	-366.55228	491.27716	962.57446	-335.42026	364.03055	1373.08984	-280.96469	313.12259	417.93338	175.98396	304.27371	1588.12988	134.97546	438.26642	1143.48804	-389.61526	284.19461	1481.57568	49.03643	464.759	1031.328	-309.44666	214.25026	255.53589	167.33974	421.21939	1401.73157	59.71848	32.28759	322.55212	5.51851	115.97448	95.79091	119.29171	307.50668	1598.65564	-8.04254	198.07407	1321.77893	95.31344	61.82323	53.56387	60.97705	200.01024	1222.33069	38.99098	191.22903	997.65436	-3.62799	179.35445	1007.18689	104.19648	NaN	NaN	NaN	2845.91431	1034.479	-3357.22119	NaN	NaN	NaN	NaN	NaN	NaN	NaN	NaN	NaN	NaN	NaN	NaN	NaN	NaN	NaN	NaN	NaN	NaN	NaN	NaN	NaN	NaN	NaN	NaN	309.39563	1748.77722	78.83417	NaN	NaN	NaN
55	0.54	252.98657	36.50667	124.96229	414.70569	1471.09363	-109.98453	406.07361	1297.93054	-395.56799	306.15021	1130.78503	358.37207	582.59045	1124.52759	266.26596	454.6795	637.01648	-124.55166	483.08621	468.41394	-89.07303	537.99792	1077.49841	277.73477	288.57632	1273.85291	317.26532	324.05569	416.37369	-76.52158	414.94424	916.54956	192.21466	140.42854	289.23203	-51.28221	178.66194	138.09602	-65.18582	363.44128	1447.66101	239.12709	522.13165	1123.94568	246.32198	423.69763	1102.3573	321.57623	441.64941	924.25317	-71.52185	489.69608	1227.36816	66.52563	458.647	1704.94092	-13.06371	339.34766	624.61719	230.80434	466.53265	1698.29419	131.59348	490.53265	1038.42261	-375.78317	509.74255	977.89319	-344.39709	388.73587	1386.44934	-281.91895	325.44943	415.44928	176.22188	342.55676	1592.02917	132.25247	453.71286	1158.82397	-398.07388	321.25134	1484.21899	49.44982	487.47641	1048.39758	-318.2251	221.04617	258.35571	166.56099	460.97092	1406.85974	56.7856	101.96382	302.09332	2.93934	117.19305	101.65026	118.64699	346.4679	1603.42322	-10.36469	239.45374	1324.50024	97.82052	63.52295	61.75428	59.99887	240.16487	1225.66235	41.66488	232.36403	1001.46277	-1.09246	219.06975	1009.85962	106.5825	NaN	NaN	NaN	2845.27563	1034.44458	-3360.32275	NaN	NaN	NaN	NaN	NaN	NaN	NaN	NaN	NaN	NaN	NaN	NaN	NaN	NaN	NaN	NaN	NaN	NaN	NaN	NaN	NaN	NaN	NaN	NaN	347.22083	1752.94507	77.30805	NaN	NaN	NaN
